<?xml version="1.0" encoding="utf-8"?>
<!-- Generator: Adobe Illustrator 17.0.0, SVG Export Plug-In . SVG Version: 6.00 Build 0)  -->
<!DOCTYPE svg PUBLIC "-//W3C//DTD SVG 1.1//EN" "http://www.w3.org/Graphics/SVG/1.1/DTD/svg11.dtd">
<svg version="1.1" id="icons" xmlns="http://www.w3.org/2000/svg" xmlns:xlink="http://www.w3.org/1999/xlink" x="0px" y="0px"
	 width="32px" height="32px" viewBox="0 0 32 32" style="enable-background:new 0 0 32 32;" xml:space="preserve">
<path id="upload" d="M27.42,14.58l-10-10c-0.05-0.05-0.1-0.08-0.15-0.12c0,0-0.01-0.01-0.01-0.01c-0.31-0.25-0.66-0.39-1.03-0.43
	c-0.03,0-0.06-0.01-0.09-0.01C15.95,3.99,15.78,4,15.61,4.03c-0.03,0.01-0.06,0.02-0.09,0.03c-0.13,0.03-0.25,0.07-0.37,0.13
	c-0.07,0.03-0.13,0.06-0.2,0.1c-0.07,0.05-0.14,0.1-0.21,0.16c-0.06,0.05-0.12,0.08-0.18,0.13l-9.98,10c-0.78,0.78-0.78,2.05,0,2.83
	c0.78,0.78,2.05,0.78,2.83,0L14,10.83V26c0,1.1,0.88,1.99,1.99,1.99c1.1,0,2.01-0.89,2.01-2V10.81l6.59,6.6
	c0.78,0.78,2.05,0.78,2.83,0C28.2,16.63,28.2,15.36,27.42,14.58z"/>
</svg>
