<?xml version="1.0" encoding="utf-8"?>
<!-- Generator: Adobe Illustrator 17.0.0, SVG Export Plug-In . SVG Version: 6.00 Build 0)  -->
<!DOCTYPE svg PUBLIC "-//W3C//DTD SVG 1.1//EN" "http://www.w3.org/Graphics/SVG/1.1/DTD/svg11.dtd">
<svg version="1.1" id="icons" xmlns="http://www.w3.org/2000/svg" xmlns:xlink="http://www.w3.org/1999/xlink" x="0px" y="0px"
	 width="32px" height="32px" viewBox="0 0 32 32" style="enable-background:new 0 0 32 32;" xml:space="preserve">
<g id="bluetooth_x5F_disable">
	<path d="M18,8.42l3.03,2.16l-2.6,2.11l2.25,2.04l3.77-3.06c0.36-0.29,0.57-0.75,0.55-1.21c-0.01-0.46-0.25-0.9-0.63-1.17l-7-5
		c-0.46-0.33-1.06-0.37-1.56-0.11C15.32,4.42,15,4.94,15,5.5v4.09l3,2.71V8.42z"/>
	<path d="M27.51,24.39l-21-19C5.89,4.83,4.94,4.88,4.39,5.49C3.83,6.11,3.88,7.06,4.49,7.61l9.55,8.64l-7.49,6.08
		c-0.64,0.52-0.74,1.47-0.22,2.11c0.52,0.64,1.47,0.74,2.11,0.22L15,19.34v7.16c0,0.56,0.32,1.08,0.81,1.33
		c0.5,0.26,1.1,0.21,1.56-0.11l5.22-3.73l2.9,2.62c0.61,0.56,1.56,0.51,2.12-0.11C28.17,25.89,28.12,24.94,27.51,24.39z M18,23.59
		v-3.75l2.32,2.1L18,23.59z"/>
</g>
</svg>
