<?xml version="1.0" encoding="utf-8"?>
<!-- Generator: Adobe Illustrator 17.0.0, SVG Export Plug-In . SVG Version: 6.00 Build 0)  -->
<!DOCTYPE svg PUBLIC "-//W3C//DTD SVG 1.1//EN" "http://www.w3.org/Graphics/SVG/1.1/DTD/svg11.dtd">
<svg version="1.1" id="icons" xmlns="http://www.w3.org/2000/svg" xmlns:xlink="http://www.w3.org/1999/xlink" x="0px" y="0px"
	 width="32px" height="32px" viewBox="0 0 32 32" style="enable-background:new 0 0 32 32;" xml:space="preserve">
<g id="alarm">
	<path d="M5.75,9.33c1-1.45,1.14-1.59,2.58-2.58c0.69-0.46,0.88-1.39,0.42-2.08C8.29,3.98,7.36,3.79,6.67,4.25
		C5.12,5.26,4.26,6.12,3.25,7.67C2.79,8.36,2.98,9.29,3.67,9.75C4.36,10.21,5.29,10.02,5.75,9.33z"/>
	<path d="M28.75,7.67c-1-1.55-1.86-2.41-3.41-3.42c-0.69-0.46-1.62-0.27-2.08,0.42c-0.46,0.69-0.27,1.62,0.41,2.08
		c1.45,0.99,1.59,1.14,2.58,2.58c0.46,0.69,1.39,0.87,2.08,0.41C29.02,9.29,29.21,8.36,28.75,7.67z"/>
	<path d="M17,16.3v-2.8c0-0.83-0.67-1.5-1.5-1.5c-0.83,0-1.5,0.67-1.5,1.5V17l0.54,1.15l3,2.5c0.64,0.53,1.58,0.44,2.11-0.19
		c0.53-0.64,0.44-1.58-0.19-2.11L17,16.3z"/>
	<path d="M16,6C9.92,6,5,10.92,5,17s4.92,11,11,11s11-4.92,11-11S22.08,6,16,6z M16,25c-4.42,0-8-3.58-8-8s3.58-8,8-8s8,3.58,8,8
		S20.42,25,16,25z"/>
</g>
</svg>
