<!-- Created with Inkscape (http://www.inkscape.org/) -->
<svg xmlns:rdf="http://www.w3.org/1999/02/22-rdf-syntax-ns#" xmlns="http://www.w3.org/2000/svg" version="1.1" xmlns:cc="http://creativecommons.org/ns#" xmlns:xlink="http://www.w3.org/1999/xlink" viewBox="0 0 24 24" xmlns:dc="http://purl.org/dc/elements/1.1/">
 <defs></defs>
 <metadata>
  <rdf:RDF>
   <cc:Work rdf:about="">
    <dc:format>image/svg+xml</dc:format>
    <dc:type rdf:resource="http://purl.org/dc/dcmitype/StillImage"/>
    <dc:title/>
   </cc:Work>
  </rdf:RDF>
 </metadata>
 <g transform="translate(0,-1028.3622)">
  <path d="m23,7.5a5.5,5.5,0,1,1,-11,0,5.5,5.5,0,1,1,11,0z" transform="translate(-0.5,1029.3622)" fill="#FF0"/>
  <path fill="#FFF" d="M11.5,6c-3.1845,0-5.8485,2.2894-6.4062,5.312-2.3795,0.797-4.0938,3.04-4.0938,5.688,0,3.3137,2.6863,6,6,6h10c3.3137,0,6-2.6863,6-6,0-3.0305-2.2376-5.5313-5.1562-5.9375-0.654-2.8982-3.248-5.062-6.344-5.062z" transform="translate(0,1028.3622)"/>
 </g>
</svg>
