<?xml version="1.0" encoding="UTF-8"?>
<svg width="24px" height="24px" viewBox="0 0 24 24" version="1.1" xmlns="http://www.w3.org/2000/svg" xmlns:xlink="http://www.w3.org/1999/xlink">
    <!-- Generator: Sketch 51.1 (57501) - http://www.bohemiancoding.com/sketch -->
    <title>smiling_face_black</title>
    <desc>Created with Sketch.</desc>
    <defs>
        <radialGradient cx="50%" cy="0%" fx="50%" fy="0%" r="100%" id="radialGradient-1">
            <stop stop-color="#FFAA00" stop-opacity="0" offset="0%"></stop>
            <stop stop-color="#FF0000" offset="100%"></stop>
        </radialGradient>
    </defs>
    <g stroke="none" stroke-width="1" fill="none" fill-rule="evenodd">
        <path d="M12,22 C6.4771525,22 2,17.5228475 2,12 C2,6.4771525 6.4771525,2 12,2 C17.5228475,2 22,6.4771525 22,12 C22,17.5228475 17.5228475,22 12,22 Z M17.6585886,14 L6.34141142,14 C7.16508423,16.3303847 9.38756235,18 12,18 C14.6124377,18 16.8349158,16.3303847 17.6585886,14 Z M8.5,11 C9.32842712,11 10,10.3284271 10,9.5 C10,8.67157288 9.32842712,8 8.5,8 C7.67157288,8 7,8.67157288 7,9.5 C7,10.3284271 7.67157288,11 8.5,11 Z M15.5,11 C16.3284271,11 17,10.3284271 17,9.5 C17,8.67157288 16.3284271,8 15.5,8 C14.6715729,8 14,8.67157288 14,9.5 C14,10.3284271 14.6715729,11 15.5,11 Z" fill="url(#radialGradient-1)" fill-rule="nonzero"></path>
    </g>
    <g stroke="none" stroke-width="1" fill-rule="evenodd" fill-opacity="0.5" opacity="0.3">
        <rect x="0" y="0" width="10" height="10"></rect>
    </g>
</svg>