<?xml version="1.0" encoding="UTF-8" standalone="no"?>
<svg width="20px" height="20px" viewBox="0 0 20 20" version="1.1" xmlns="http://www.w3.org/2000/svg" xmlns:xlink="http://www.w3.org/1999/xlink" xmlns:sketch="http://www.bohemiancoding.com/sketch/ns">
    <!-- Generator: Sketch 3.2.2 (9983) - http://www.bohemiancoding.com/sketch -->
    <title>weather_cloudy</title>
    <desc>Created with Sketch.</desc>
    <defs></defs>
    <g id="Page-1" stroke="none" stroke-width="1" fill="none" fill-rule="evenodd" sketch:type="MSPage">
        <path d="M15,10 C17.7614237,10 20,7.76142375 20,5 C20,2.23857625 17.7614237,0 15,0 C12.2385763,0 10,2.23857625 10,5 C10,7.76142375 12.2385763,10 15,10 Z" id="sun" fill="#FFDD3D" sketch:type="MSShapeGroup"></path>
        <path d="M14,18.9775785 C14.164681,18.9924187 14.3314552,19 14.5,19 C17.5375661,19 20,16.5375661 20,13.5 C20,10.4624339 17.5375661,8 14.5,8 C14.3314384,8 14.1646478,8.00758282 13.9999508,8.02242594 C13.9999836,8.01495449 14,8.00747916 14,8 C14,5.23857625 11.7614237,3 9,3 C6.23857625,3 4,5.23857625 4,8 C4,8.06895407 4.00139581,8.13758213 4.00416071,8.20585747 L4.00416071,8.20585747 C1.69352792,8.85741164 0,10.9809335 0,13.5 C0,16.3690213 2.19674999,18.7249641 5,18.9775785 L5,19 L14,19 L14,18.9775785 Z" id="clound" fill="#D8D8D8" sketch:type="MSShapeGroup"></path>
    </g>
</svg>