<?xml version="1.0" encoding="iso-8859-1"?>
<!-- Generator: Adobe Illustrator 18.1.1, SVG Export Plug-In . SVG Version: 6.00 Build 0)  -->
<svg version="1.1" id="&#x56FE;&#x5C42;_1" xmlns="http://www.w3.org/2000/svg" xmlns:xlink="http://www.w3.org/1999/xlink" x="0px"
	 y="0px" viewBox="0 0 24 24" style="enable-background:new 0 0 24 24;" xml:space="preserve">
<circle style="fill-rule:evenodd;clip-rule:evenodd;fill:#FFF100;" cx="16.852" cy="7.376" r="5"/>
<path style="fill-rule:evenodd;clip-rule:evenodd;fill:#FFFFFF;" d="M15.852,21.354c0.165,0.015,0.331,0.022,0.5,0.022
	c3.038,0,5.5-2.462,5.5-5.5s-2.462-5.5-5.5-5.5c-0.169,0-0.335,0.008-0.5,0.022c0-0.007,0-0.015,0-0.022c0-2.761-2.239-5-5-5
	c-2.761,0-5,2.239-5,5c0,0.069,0.001,0.138,0.004,0.206c-2.311,0.652-4.004,2.775-4.004,5.294c0,2.869,2.197,5.225,5,5.478v0.022h9
	V21.354z"/>
</svg>
