<?xml version="1.0" encoding="utf-8"?>
<!-- Generator: Adobe Illustrator 17.0.0, SVG Export Plug-In . SVG Version: 6.00 Build 0)  -->
<!DOCTYPE svg PUBLIC "-//W3C//DTD SVG 1.1//EN" "http://www.w3.org/Graphics/SVG/1.1/DTD/svg11.dtd">
<svg version="1.1" id="icons" xmlns="http://www.w3.org/2000/svg" xmlns:xlink="http://www.w3.org/1999/xlink" x="0px" y="0px"
	 width="128px" height="128px" viewBox="0 0 32 32" enable-background="new 0 0 32 32" xml:space="preserve">
<path fill="#0461FF" d="M15,15H3V3h12V15z"/>
<path fill="#FF2942" d="M29,9c0,3.31-2.69,6-6,6s-6-2.69-6-6s2.69-6,6-6S29,5.69,29,9z"/>
<path fill="#3EFF36" d="M2,29l7.5-13L17,29H2z"/>
<path fill="#FFC02D" d="M22.5,17c3.59,0,6.5,2.49,6.5,5.55c0,1.22-0.46,2.35-1.25,3.27L28.96,29l-5.12-1.09
	c-0.53,0.02-1.13,0.15-1.73,0.17c-0.07,0-0.14,0-0.2,0c-3.48,0-5.9-2.53-5.9-5.53C16,19.49,18.91,17,22.5,17"/>
</svg>
